HIERARCHY
ROOT root
{
	OFFSET 0.000000 0.000000 0.000000
	CHANNELS 6 Xposition Yposition Zposition Zrotation Yrotation Xrotation
	JOINT lhip
	{
		OFFSET 0.058581 -0.082280 -0.017664
		CHANNELS 3 Zrotation Yrotation Xrotation
		JOINT lknee
		{
			OFFSET 0.043451 -0.386469 0.008037
			CHANNELS 3 Zrotation Yrotation Xrotation
			JOINT lankle
			{
				OFFSET -0.014790 -0.426874 -0.037428
				CHANNELS 3 Zrotation Yrotation Xrotation
				JOINT ltoe
				{
					OFFSET 0.041054 -0.060286 0.122042
					CHANNELS 3 Zrotation Yrotation Xrotation
					End Site
					{
						OFFSET 0.000000 0.000000 0.000000
					}
				}
			}
		}
	}
	JOINT rhip
	{
		OFFSET -0.060310 -0.090513 -0.013543
		CHANNELS 3 Zrotation Yrotation Xrotation
		JOINT rknee
		{
			OFFSET -0.043257 -0.383688 -0.004843
			CHANNELS 3 Zrotation Yrotation Xrotation
			JOINT rankle
			{
				OFFSET 0.019056 -0.420046 -0.034562
				CHANNELS 3 Zrotation Yrotation Xrotation
				JOINT rtoe
				{
					OFFSET -0.034840 -0.062106 0.130323
					CHANNELS 3 Zrotation Yrotation Xrotation
					End Site
					{
						OFFSET 0.000000 0.000000 0.000000
					}
				}
			}
		}
	}
	JOINT lowerback
	{
		OFFSET 0.004439 0.124404 -0.038385
		CHANNELS 3 Zrotation Yrotation Xrotation
		JOINT upperback
		{
			OFFSET 0.004488 0.137956 0.026820
			CHANNELS 3 Zrotation Yrotation Xrotation
			JOINT chest
			{
				OFFSET -0.002265 0.056032 0.002855
				CHANNELS 3 Zrotation Yrotation Xrotation
				JOINT lowerneck
				{
					OFFSET -0.013390 0.211636 -0.033468
					CHANNELS 3 Zrotation Yrotation Xrotation
					JOINT upperneck
					{
						OFFSET 0.010113 0.088937 0.050410
						CHANNELS 3 Zrotation Yrotation Xrotation
						End Site
						{
							OFFSET 0.000000 0.000000 0.000000
						}
					}
				}
				JOINT lclavicle
				{
					OFFSET 0.071702 0.114000 -0.018898
					CHANNELS 3 Zrotation Yrotation Xrotation
					JOINT lshoulder
					{
						OFFSET 0.122921 0.045205 -0.019046
						CHANNELS 3 Zrotation Yrotation Xrotation
						JOINT lelbow
						{
							OFFSET 0.255332 -0.015649 -0.022946
							CHANNELS 3 Zrotation Yrotation Xrotation
							JOINT lwrist
							{
								OFFSET 0.265709 0.012698 -0.007375
								CHANNELS 3 Zrotation Yrotation Xrotation
								End Site
								{
									OFFSET 0.000000 0.000000 0.000000
								}
							}
						}
					}
				}
				JOINT rclavicle
				{
					OFFSET -0.082954 0.112472 -0.023707
					CHANNELS 3 Zrotation Yrotation Xrotation
					JOINT rshoulder
					{
						OFFSET -0.113228 0.046853 -0.008472
						CHANNELS 3 Zrotation Yrotation Xrotation
						JOINT relbow
						{
							OFFSET -0.260127 -0.014369 -0.031269
							CHANNELS 3 Zrotation Yrotation Xrotation
							JOINT rwrist
							{
								OFFSET -0.269108 0.006794 -0.006027
								CHANNELS 3 Zrotation Yrotation Xrotation
								End Site
								{
									OFFSET 0.000000 0.000000 0.000000
								}
							}
						}
					}
				}
			}
		}
	}
}
MOTION
Frames: 7
Frame Time: 0.033333
-1.629958 0.702393 1.008644 11.488545 6.397478 92.592475 3.346022 -2.531256 -28.939308 -2.866572 2.320449 10.187909 4.499213 8.091880 -11.287790 0.000000 -0.000000 0.000000 4.354665 -1.509649 4.212863 7.382479 6.302909 18.502084 3.175333 -5.766498 -17.218289 0.000000 -0.000000 0.000000 7.439697 5.053964 4.343679 2.090822 -0.156792 -6.211994 -1.308517 2.015986 -0.614843 0.502507 9.922835 -8.951984 0.652984 12.577279 10.121675 -31.608567 1.337225 7.037468 -57.938778 2.278862 8.843160 14.159799 -31.431018 6.664326 12.511326 -16.852899 -20.737756 28.662292 3.081241 8.837629 54.269879 7.424226 7.916773 -18.958983 23.632763 -8.167639 1.098415 14.342954 -18.382250 
-1.624761 0.673355 1.007486 11.639106 6.366442 93.635295 3.087621 -3.453537 -28.315862 -2.609677 1.594296 10.001474 8.122418 7.864257 -8.439841 0.000000 -0.000000 0.000000 4.404671 -1.470059 3.995702 7.475976 6.395875 20.171532 4.006708 -5.798992 -15.989386 0.000000 -0.000000 0.000000 5.297023 5.643945 2.860918 2.162635 0.027595 -6.370461 -1.156800 2.066272 -0.760684 1.224116 9.655370 -9.247408 1.093702 12.420078 10.713435 -31.195913 1.839103 7.383526 -58.160373 2.119224 9.108261 14.156236 -30.355649 6.133009 13.536096 -15.762567 -20.166986 28.466675 2.557038 9.041673 56.027925 5.800216 8.984695 -19.441794 23.717445 -8.232697 3.377180 14.437155 -17.936668 
-1.618750 0.643725 1.008990 11.803102 5.884599 94.101668 2.407898 -5.096540 -27.526008 -2.218600 0.127521 10.679142 11.484472 9.059343 -7.762173 0.000000 -0.000000 0.000000 4.120793 -0.980783 2.996357 7.454515 5.399258 24.115158 5.601854 -5.775594 -14.167076 0.000000 -0.000000 0.000000 2.518041 5.898446 2.233365 2.246758 0.080742 -6.805643 -0.924191 2.089543 -0.943674 2.176753 10.012789 -9.446072 1.220603 11.896794 11.235472 -30.895950 2.484986 7.229145 -57.979162 2.228850 9.372851 13.944668 -28.721548 4.500518 14.421644 -15.156168 -18.714755 28.885748 1.928129 7.726714 56.853960 3.873250 10.092102 -18.922641 22.688324 -8.029729 5.110593 14.329244 -15.654521 
-1.612043 0.614844 1.013343 12.459213 4.815214 93.704619 1.545348 -7.810304 -25.970230 -2.085621 -0.289768 12.013526 12.771453 10.846992 -9.071383 0.000000 -0.000000 0.000000 2.820398 -0.691929 1.422085 7.477632 2.358246 30.375288 8.419961 -5.157533 -10.135243 0.000000 -0.000000 0.000000 -0.665485 5.904369 2.892007 2.194414 -0.263018 -7.283038 -0.721981 1.978784 -1.276755 3.268743 10.855891 -9.388193 1.249472 11.029754 11.148605 -30.477431 2.704844 6.985191 -57.716356 2.314005 9.562498 14.075384 -26.457298 2.472700 13.791704 -15.625239 -17.734981 29.629938 1.290833 5.439855 57.359931 2.007411 10.829428 -18.095130 20.914365 -7.073552 6.969411 14.060791 -13.050833 
-1.604106 0.587447 1.018624 13.745814 3.943393 92.849087 0.695332 -10.093588 -23.825962 -2.546824 -0.266312 12.980642 13.814307 12.176794 -10.889134 0.000000 -0.000000 0.000000 0.979448 -1.319484 -1.013427 7.125789 -1.790629 38.150334 11.382116 -4.398126 -2.097927 0.000000 -0.000000 0.000000 -2.954653 5.585789 4.065674 1.909107 -0.728676 -7.411554 -0.551237 1.651835 -1.570356 3.768461 11.229736 -9.425187 1.328118 10.652019 10.623153 -30.224090 2.308215 6.692819 -57.891036 2.481485 9.152670 14.968106 -24.255311 0.000778 11.636367 -16.501793 -15.457444 29.782878 1.125867 4.169321 58.222631 0.862451 11.036066 -17.876656 19.286496 -7.311233 8.318756 13.454937 -10.577973 
-1.595864 0.562336 1.022334 14.990080 3.865719 92.060256 -0.206676 -9.473610 -21.666985 -3.317193 -1.661614 13.717174 15.223615 12.394835 -12.956650 0.000000 -0.000000 0.000000 -0.239644 -1.868138 -4.012048 7.158034 -4.226411 45.187864 11.236210 -4.559774 6.067220 0.000000 -0.000000 0.000000 -3.556744 4.995228 5.229832 1.492508 -0.729330 -7.729868 -0.655897 1.233685 -1.394375 3.404359 11.262591 -9.517681 1.538492 10.640528 10.247533 -29.880100 1.466031 6.832930 -57.986361 2.494491 8.533049 15.266408 -23.248744 -0.788164 9.922015 -16.677920 -14.097135 29.315375 1.384474 4.331280 59.275663 0.482213 10.839166 -18.304107 18.547188 -8.256845 9.505433 12.871810 -9.688031 
-1.587323 0.540136 1.023916 16.157266 4.126122 91.436682 -1.116376 -7.687575 -19.660432 -3.729530 -3.866085 14.383638 16.107004 12.275420 -15.019818 0.000000 -0.000000 0.000000 -1.040324 -1.999227 -7.374765 7.456090 -5.588817 50.908057 9.898592 -4.966165 6.948759 0.000000 -0.000000 0.000000 -3.208777 4.105501 6.308973 1.112344 -0.532846 -7.987871 -0.988798 0.900435 -1.153576 3.112686 11.651285 -9.620678 1.216538 10.528690 10.619943 -29.849906 0.420800 6.948400 -57.363817 2.362735 8.416057 14.761597 -23.060764 -0.489246 8.982271 -16.832456 -13.194340 28.917490 1.873983 4.352320 59.538195 0.069915 10.673144 -18.394213 18.501611 -9.093499 10.241201 12.728051 -9.519066 
